<svg width="341" height="360" viewBox="0 0 341 360" fill="none" xmlns="http://www.w3.org/2000/svg">
<path d="M72.3294 131.002C73.6751 114.39 83.905 100.13 98.7369 94.1918L141.997 76.8728L184.304 65.0552C200.776 60.454 218.4 66.8007 228.864 81.1024L254.645 116.337L277.49 155.726C286.038 170.465 285.685 188.947 276.585 203.076L250.672 243.311L220.995 280.566C210.573 293.648 193.756 299.1 177.913 294.531L135.569 282.321L96.2188 266.002C80.2464 259.378 69.5807 243.332 69.251 225.432L68.4044 179.457L72.3294 131.002Z" fill="white"/>
<path d="M225.026 185.848C226.345 185.848 227.291 186.135 227.864 186.708C228.495 187.281 228.81 188.027 228.81 188.944C228.81 190.435 228.351 191.753 227.434 192.9C226.574 194.047 225.198 194.649 223.306 194.706C218.777 194.763 214.706 194.419 211.094 193.674C207.081 202.217 202.236 209.326 196.56 215.002C190.941 220.621 185.38 223.43 179.876 223.43C174.831 223.43 171.047 220.764 168.524 215.432C166.001 210.043 164.568 202.847 164.224 193.846C160.784 203.822 156.885 211.247 152.528 216.12C148.228 220.993 143.641 223.43 138.768 223.43C133.264 223.43 129.107 220.019 126.298 213.196C123.489 206.316 122.084 197.085 122.084 185.504C122.084 177.076 122.829 167.817 124.32 157.726C124.721 154.859 125.438 152.881 126.47 151.792C127.559 150.645 129.251 150.072 131.544 150.072C133.264 150.072 134.583 150.445 135.5 151.19C136.475 151.935 136.962 153.311 136.962 155.318C136.962 155.719 136.905 156.493 136.79 157.64C135.07 169.393 134.21 179.398 134.21 187.654C134.21 195.337 134.869 201.271 136.188 205.456C137.507 209.641 139.284 211.734 141.52 211.734C143.527 211.734 145.935 209.641 148.744 205.456C151.611 201.213 154.449 194.964 157.258 186.708C160.067 178.395 162.447 168.505 164.396 157.038C164.855 154.401 165.686 152.595 166.89 151.62C168.151 150.588 169.843 150.072 171.964 150.072C173.741 150.072 175.031 150.473 175.834 151.276C176.694 152.021 177.124 153.168 177.124 154.716C177.124 155.633 177.067 156.35 176.952 156.866C175.347 166.211 174.544 175.557 174.544 184.902C174.544 191.266 174.745 196.34 175.146 200.124C175.605 203.908 176.436 206.803 177.64 208.81C178.901 210.759 180.707 211.734 183.058 211.734C185.81 211.734 188.877 209.67 192.26 205.542C195.643 201.357 198.739 196.168 201.548 189.976C198.051 187.797 195.413 184.988 193.636 181.548C191.859 178.051 190.97 174.037 190.97 169.508C190.97 164.979 191.658 161.166 193.034 158.07C194.467 154.917 196.388 152.566 198.796 151.018C201.261 149.47 203.985 148.696 206.966 148.696C210.635 148.696 213.531 150.015 215.652 152.652C217.831 155.289 218.92 158.901 218.92 163.488C218.92 169.967 217.515 177.162 214.706 185.074C217.63 185.59 221.07 185.848 225.026 185.848ZM199.656 168.906C199.656 174.525 201.462 178.681 205.074 181.376C207.31 174.955 208.428 169.651 208.428 165.466C208.428 163.058 208.113 161.309 207.482 160.22C206.851 159.073 205.991 158.5 204.902 158.5C203.354 158.5 202.093 159.417 201.118 161.252C200.143 163.029 199.656 165.581 199.656 168.906Z" fill="black" fill-opacity="0.75"/>
</svg>
