<svg width="271" height="74" viewBox="0 0 271 74" fill="none" xmlns="http://www.w3.org/2000/svg">
<path d="M92.486 39.736C93.6667 39.736 94.5137 39.9927 95.027 40.506C95.5917 41.0193 95.874 41.6867 95.874 42.508C95.874 43.8427 95.4633 45.0233 94.642 46.05C93.872 47.0767 92.64 47.6157 90.946 47.667C86.8907 47.7183 83.246 47.4103 80.012 46.743C76.4187 54.3917 72.081 60.757 66.999 65.839C61.9683 70.8697 56.989 73.385 52.061 73.385C47.5437 73.385 44.1557 70.998 41.897 66.224C39.6383 61.3987 38.355 54.9563 38.047 46.897C34.967 55.829 31.4763 62.4767 27.575 66.84C23.725 71.2033 19.6183 73.385 15.255 73.385C10.327 73.385 6.60533 70.3307 4.09 64.222C1.57467 58.062 0.317001 49.7973 0.317001 39.428C0.317001 31.882 0.984334 23.5917 2.319 14.557C2.67833 11.9903 3.32 10.2193 4.244 9.24399C5.21933 8.21733 6.73367 7.704 8.787 7.704C10.327 7.704 11.5077 8.03766 12.329 8.705C13.2017 9.37233 13.638 10.6043 13.638 12.401C13.638 12.7603 13.5867 13.4533 13.484 14.48C11.944 25.0033 11.174 33.961 11.174 41.353C11.174 48.2317 11.7643 53.5447 12.945 57.292C14.1257 61.0393 15.717 62.913 17.719 62.913C19.5157 62.913 21.6717 61.0393 24.187 57.292C26.7537 53.4933 29.2947 47.898 31.81 40.506C34.3253 33.0627 36.4557 24.2077 38.201 13.941C38.6117 11.5797 39.356 9.96266 40.434 9.09C41.5633 8.166 43.0777 7.704 44.977 7.704C46.5683 7.704 47.7233 8.06333 48.442 8.782C49.212 9.44933 49.597 10.476 49.597 11.862C49.597 12.6833 49.5457 13.325 49.443 13.787C48.0057 22.1543 47.287 30.5217 47.287 38.889C47.287 44.587 47.4667 49.13 47.826 52.518C48.2367 55.906 48.981 58.4983 50.059 60.295C51.1883 62.0403 52.8053 62.913 54.91 62.913C57.374 62.913 60.1203 61.065 63.149 57.369C66.1777 53.6217 68.9497 48.976 71.465 43.432C68.3337 41.4813 65.9723 38.966 64.381 35.886C62.7897 32.7547 61.994 29.1613 61.994 25.106C61.994 21.0507 62.61 17.637 63.842 14.865C65.1253 12.0417 66.845 9.937 69.001 8.551C71.2083 7.165 73.6467 6.472 76.316 6.472C79.6013 6.472 82.1937 7.65267 84.093 10.014C86.0437 12.3753 87.019 15.6093 87.019 19.716C87.019 25.5167 85.7613 31.959 83.246 39.043C85.864 39.505 88.944 39.736 92.486 39.736ZM69.771 24.567C69.771 29.5977 71.388 33.3193 74.622 35.732C76.624 29.9827 77.625 25.2343 77.625 21.487C77.625 19.331 77.3427 17.7653 76.778 16.79C76.2133 15.7633 75.4433 15.25 74.468 15.25C73.082 15.25 71.9527 16.0713 71.08 17.714C70.2073 19.3053 69.771 21.5897 69.771 24.567ZM127.659 49.361C128.327 49.361 128.84 49.6947 129.199 50.362C129.559 51.0293 129.738 51.8763 129.738 52.903C129.738 55.367 128.994 56.83 127.505 57.292C124.425 58.37 121.037 58.986 117.341 59.14C116.366 63.452 114.441 66.917 111.566 69.535C108.692 72.1017 105.432 73.385 101.787 73.385C98.7074 73.385 96.0637 72.6407 93.8564 71.152C91.7004 69.6633 90.0577 67.687 88.9284 65.223C87.799 62.759 87.2344 60.0897 87.2344 57.215C87.2344 53.3137 87.9787 49.8487 89.4674 46.82C90.956 43.74 93.0094 41.353 95.6274 39.659C98.2454 37.9137 101.146 37.041 104.328 37.041C108.23 37.041 111.361 38.4013 113.722 41.122C116.135 43.7913 117.547 47.1023 117.957 51.055C120.37 50.901 123.245 50.3877 126.581 49.515C126.992 49.4123 127.351 49.361 127.659 49.361ZM102.403 65.223C104.046 65.223 105.458 64.5557 106.638 63.221C107.87 61.8863 108.692 59.9613 109.102 57.446C107.511 56.368 106.279 54.9563 105.406 53.211C104.585 51.4657 104.174 49.6177 104.174 47.667C104.174 46.8457 104.251 46.0243 104.405 45.203H104.02C101.967 45.203 100.247 46.204 98.8614 48.206C97.5267 50.1567 96.8594 52.9287 96.8594 56.522C96.8594 59.3453 97.3984 61.5013 98.4764 62.99C99.6057 64.4787 100.915 65.223 102.403 65.223ZM128.597 73.385C126.646 73.385 125.26 72.3583 124.439 70.305C123.669 68.2517 123.284 64.9663 123.284 60.449C123.284 53.7757 124.233 47.436 126.133 41.43C126.595 39.9413 127.339 38.8633 128.366 38.196C129.444 37.4773 130.932 37.118 132.832 37.118C133.858 37.118 134.577 37.2463 134.988 37.503C135.398 37.7597 135.604 38.2473 135.604 38.966C135.604 39.7873 135.219 41.6353 134.449 44.51C133.935 46.5633 133.525 48.36 133.217 49.9C132.909 51.44 132.652 53.3393 132.447 55.598C134.141 51.1833 136.04 47.59 138.145 44.818C140.249 42.046 142.303 40.0697 144.305 38.889C146.358 37.7083 148.232 37.118 149.926 37.118C153.262 37.118 154.931 38.7863 154.931 42.123C154.931 44.125 154.366 47.744 153.237 52.98C152.261 57.446 151.774 60.3977 151.774 61.835C151.774 63.8883 152.518 64.915 154.007 64.915C155.033 64.915 156.24 64.299 157.626 63.067C159.063 61.7837 160.962 59.7303 163.324 56.907C163.94 56.1883 164.633 55.829 165.403 55.829C166.07 55.829 166.583 56.137 166.943 56.753C167.353 57.369 167.559 58.216 167.559 59.294C167.559 61.3473 167.071 62.9387 166.096 64.068C163.888 66.7887 161.501 69.0217 158.935 70.767C156.419 72.5123 153.545 73.385 150.311 73.385C147.693 73.385 145.716 72.6407 144.382 71.152C143.047 69.612 142.38 67.4047 142.38 64.53C142.38 63.0927 142.739 60.526 143.458 56.83C144.125 53.596 144.459 51.363 144.459 50.131C144.459 49.3097 144.176 48.899 143.612 48.899C142.944 48.899 141.995 49.7717 140.763 51.517C139.582 53.211 138.35 55.4697 137.067 58.293C135.835 61.1163 134.834 64.0937 134.064 67.225C133.499 69.6377 132.832 71.2803 132.062 72.153C131.343 72.9743 130.188 73.385 128.597 73.385ZM205.065 55.829C205.732 55.829 206.245 56.137 206.605 56.753C207.015 57.369 207.221 58.216 207.221 59.294C207.221 61.3473 206.733 62.9387 205.758 64.068C203.653 66.6347 201.343 68.842 198.828 70.69C196.312 72.4867 193.823 73.385 191.359 73.385C187.457 73.385 184.48 71.1007 182.427 66.532C180.271 69.2527 178.371 71.075 176.729 71.999C175.137 72.923 173.264 73.385 171.108 73.385C167.976 73.385 165.384 72.23 163.331 69.92C161.329 67.5587 160.328 64.5043 160.328 60.757C160.328 56.6503 161.2 52.8517 162.946 49.361C164.691 45.819 167.078 42.9443 170.107 40.737C173.187 38.4783 176.626 37.1437 180.425 36.733C181.4 26.7743 183.248 18.2787 185.969 11.246C188.741 4.162 192.36 0.619996 196.826 0.619996C199.033 0.619996 200.855 1.621 202.293 3.623C203.781 5.625 204.526 8.65366 204.526 12.709C204.526 18.4583 203.114 25.183 200.291 32.883C197.467 40.583 193.694 48.4883 188.972 56.599C189.177 59.5763 189.613 61.7067 190.281 62.99C190.999 64.2733 191.898 64.915 192.976 64.915C194.362 64.915 195.773 64.299 197.211 63.067C198.648 61.835 200.573 59.7817 202.986 56.907C203.602 56.1883 204.295 55.829 205.065 55.829ZM195.979 8.16599C195.003 8.16599 194.028 9.91133 193.053 13.402C192.077 16.8413 191.23 21.3587 190.512 26.954C189.844 32.5493 189.357 38.4013 189.049 44.51C194.798 31.9847 197.673 21.9233 197.673 14.326C197.673 12.3753 197.493 10.861 197.134 9.783C196.826 8.705 196.441 8.16599 195.979 8.16599ZM173.803 65.608C174.778 65.608 175.753 65.223 176.729 64.453C177.704 63.6317 178.936 62.143 180.425 59.987C179.911 57.215 179.655 54.1093 179.655 50.67C179.655 49.438 179.706 47.436 179.809 44.664C176.985 45.5367 174.624 47.436 172.725 50.362C170.877 53.2367 169.953 56.445 169.953 59.987C169.953 63.7343 171.236 65.608 173.803 65.608ZM240.227 49.361C240.894 49.361 241.407 49.6947 241.767 50.362C242.126 51.0293 242.306 51.8763 242.306 52.903C242.306 55.367 241.561 56.83 240.073 57.292C236.993 58.37 233.605 58.986 229.909 59.14C228.933 63.452 227.008 66.917 224.134 69.535C221.259 72.1017 217.999 73.385 214.355 73.385C211.275 73.385 208.631 72.6407 206.424 71.152C204.268 69.6633 202.625 67.687 201.496 65.223C200.366 62.759 199.802 60.0897 199.802 57.215C199.802 53.3137 200.546 49.8487 202.035 46.82C203.523 43.74 205.577 41.353 208.195 39.659C210.813 37.9137 213.713 37.041 216.896 37.041C220.797 37.041 223.928 38.4013 226.29 41.122C228.702 43.7913 230.114 47.1023 230.525 51.055C232.937 50.901 235.812 50.3877 239.149 49.515C239.559 49.4123 239.919 49.361 240.227 49.361ZM214.971 65.223C216.613 65.223 218.025 64.5557 219.206 63.221C220.438 61.8863 221.259 59.9613 221.67 57.446C220.078 56.368 218.846 54.9563 217.974 53.211C217.152 51.4657 216.742 49.6177 216.742 47.667C216.742 46.8457 216.819 46.0243 216.973 45.203H216.588C214.534 45.203 212.815 46.204 211.429 48.206C210.094 50.1567 209.427 52.9287 209.427 56.522C209.427 59.3453 209.966 61.5013 211.044 62.99C212.173 64.4787 213.482 65.223 214.971 65.223ZM266.805 47.667C267.934 47.667 268.884 48.0777 269.654 48.899C270.475 49.669 270.886 50.6443 270.886 51.825C270.886 52.4923 270.732 53.211 270.424 53.981C269.603 55.8803 268.448 57.4717 266.959 58.755C265.47 60.0383 263.828 60.68 262.031 60.68C260.594 60.68 259.362 60.1667 258.335 59.14C257.36 58.1133 256.872 56.7273 256.872 54.982C256.872 54.0067 256.923 52.9543 257.026 51.825C257.129 51.0037 257.18 50.439 257.18 50.131C257.18 49.7203 257.077 49.4123 256.872 49.207C256.718 49.0017 256.513 48.899 256.256 48.899C255.537 48.899 254.562 49.7717 253.33 51.517C252.098 53.211 250.866 55.4697 249.634 58.293C248.402 61.1163 247.401 64.0937 246.631 67.225C246.066 69.689 245.425 71.3317 244.706 72.153C243.987 72.9743 242.807 73.385 241.164 73.385C239.213 73.385 237.827 72.3583 237.006 70.305C236.236 68.2517 235.851 64.9663 235.851 60.449C235.851 53.7757 236.801 47.436 238.7 41.43C239.162 39.9413 239.906 38.8633 240.933 38.196C242.011 37.4773 243.5 37.118 245.399 37.118C246.426 37.118 247.144 37.2463 247.555 37.503C247.966 37.7597 248.171 38.2473 248.171 38.966C248.171 39.7873 247.786 41.6353 247.016 44.51C246.503 46.5633 246.092 48.36 245.784 49.9C245.476 51.44 245.219 53.3393 245.014 55.598C246.708 51.1833 248.607 47.59 250.712 44.818C252.817 42.046 254.87 40.0697 256.872 38.889C258.874 37.7083 260.696 37.118 262.339 37.118C263.828 37.118 264.957 37.5543 265.727 38.427C266.548 39.2483 266.959 40.4803 266.959 42.123C266.959 43.0983 266.677 44.9463 266.112 47.667H266.805Z" fill="black" fill-opacity="0.75"/>
</svg>
