<svg width="96" height="68" viewBox="0 0 96 68" fill="none" xmlns="http://www.w3.org/2000/svg">
<path d="M92.486 33.736C93.6667 33.736 94.5137 33.9927 95.027 34.506C95.5917 35.0193 95.874 35.6867 95.874 36.508C95.874 37.8427 95.4633 39.0233 94.642 40.05C93.872 41.0767 92.64 41.6157 90.946 41.667C86.8907 41.7183 83.246 41.4103 80.012 40.743C76.4187 48.3917 72.081 54.757 66.999 59.839C61.9683 64.8697 56.989 67.385 52.061 67.385C47.5437 67.385 44.1557 64.998 41.897 60.224C39.6383 55.3987 38.355 48.9563 38.047 40.897C34.967 49.829 31.4763 56.4767 27.575 60.84C23.725 65.2033 19.6183 67.385 15.255 67.385C10.327 67.385 6.60533 64.3307 4.09 58.222C1.57467 52.062 0.317001 43.7973 0.317001 33.428C0.317001 25.882 0.984334 17.5917 2.319 8.557C2.67833 5.99033 3.32 4.21933 4.244 3.24399C5.21933 2.21733 6.73367 1.704 8.787 1.704C10.327 1.704 11.5077 2.03766 12.329 2.705C13.2017 3.37233 13.638 4.60433 13.638 6.401C13.638 6.76033 13.5867 7.45333 13.484 8.48C11.944 19.0033 11.174 27.961 11.174 35.353C11.174 42.2317 11.7643 47.5447 12.945 51.292C14.1257 55.0393 15.717 56.913 17.719 56.913C19.5157 56.913 21.6717 55.0393 24.187 51.292C26.7537 47.4933 29.2947 41.898 31.81 34.506C34.3253 27.0627 36.4557 18.2077 38.201 7.941C38.6117 5.57966 39.356 3.96266 40.434 3.09C41.5633 2.166 43.0777 1.704 44.977 1.704C46.5683 1.704 47.7233 2.06333 48.442 2.782C49.212 3.44933 49.597 4.476 49.597 5.862C49.597 6.68333 49.5457 7.325 49.443 7.787C48.0057 16.1543 47.287 24.5217 47.287 32.889C47.287 38.587 47.4667 43.13 47.826 46.518C48.2367 49.906 48.981 52.4983 50.059 54.295C51.1883 56.0403 52.8053 56.913 54.91 56.913C57.374 56.913 60.1203 55.065 63.149 51.369C66.1777 47.6217 68.9497 42.976 71.465 37.432C68.3337 35.4813 65.9723 32.966 64.381 29.886C62.7897 26.7547 61.994 23.1613 61.994 19.106C61.994 15.0507 62.61 11.637 63.842 8.865C65.1253 6.04166 66.845 3.937 69.001 2.551C71.2083 1.165 73.6467 0.471998 76.316 0.471998C79.6013 0.471998 82.1937 1.65267 84.093 4.014C86.0437 6.37533 87.019 9.60933 87.019 13.716C87.019 19.5167 85.7613 25.959 83.246 33.043C85.864 33.505 88.944 33.736 92.486 33.736ZM69.771 18.567C69.771 23.5977 71.388 27.3193 74.622 29.732C76.624 23.9827 77.625 19.2343 77.625 15.487C77.625 13.331 77.3427 11.7653 76.778 10.79C76.2133 9.76333 75.4433 9.25 74.468 9.25C73.082 9.25 71.9527 10.0713 71.08 11.714C70.2073 13.3053 69.771 15.5897 69.771 18.567Z" fill="black" fill-opacity="0.75"/>
</svg>
