<svg width="142" height="39" viewBox="0 0 142 39" fill="none" xmlns="http://www.w3.org/2000/svg">
<path d="M48.72 20.72C49.3333 20.72 49.7733 20.8533 50.04 21.12C50.3333 21.3867 50.48 21.7333 50.48 22.16C50.48 22.8533 50.2667 23.4667 49.84 24C49.44 24.5333 48.8 24.8133 47.92 24.84C45.8133 24.8667 43.92 24.7067 42.24 24.36C40.3733 28.3333 38.12 31.64 35.48 34.28C32.8667 36.8933 30.28 38.2 27.72 38.2C25.3733 38.2 23.6133 36.96 22.44 34.48C21.2667 31.9733 20.6 28.6267 20.44 24.44C18.84 29.08 17.0267 32.5333 15 34.8C13 37.0667 10.8667 38.2 8.6 38.2C6.04 38.2 4.10667 36.6133 2.8 33.44C1.49333 30.24 0.84 25.9467 0.84 20.56C0.84 16.64 1.18667 12.3333 1.88 7.64C2.06667 6.30667 2.4 5.38667 2.88 4.88C3.38667 4.34666 4.17333 4.08 5.24 4.08C6.04 4.08 6.65333 4.25333 7.08 4.6C7.53333 4.94667 7.76 5.58667 7.76 6.52C7.76 6.70667 7.73333 7.06667 7.68 7.6C6.88 13.0667 6.48 17.72 6.48 21.56C6.48 25.1333 6.78667 27.8933 7.4 29.84C8.01333 31.7867 8.84 32.76 9.88 32.76C10.8133 32.76 11.9333 31.7867 13.24 29.84C14.5733 27.8667 15.8933 24.96 17.2 21.12C18.5067 17.2533 19.6133 12.6533 20.52 7.32C20.7333 6.09333 21.12 5.25333 21.68 4.8C22.2667 4.32 23.0533 4.08 24.04 4.08C24.8667 4.08 25.4667 4.26666 25.84 4.64C26.24 4.98666 26.44 5.52 26.44 6.24C26.44 6.66666 26.4133 7 26.36 7.24C25.6133 11.5867 25.24 15.9333 25.24 20.28C25.24 23.24 25.3333 25.6 25.52 27.36C25.7333 29.12 26.12 30.4667 26.68 31.4C27.2667 32.3067 28.1067 32.76 29.2 32.76C30.48 32.76 31.9067 31.8 33.48 29.88C35.0533 27.9333 36.4933 25.52 37.8 22.64C36.1733 21.6267 34.9467 20.32 34.12 18.72C33.2933 17.0933 32.88 15.2267 32.88 13.12C32.88 11.0133 33.2 9.24 33.84 7.8C34.5067 6.33333 35.4 5.24 36.52 4.52C37.6667 3.8 38.9333 3.44 40.32 3.44C42.0267 3.44 43.3733 4.05333 44.36 5.28C45.3733 6.50667 45.88 8.18667 45.88 10.32C45.88 13.3333 45.2267 16.68 43.92 20.36C45.28 20.6 46.88 20.72 48.72 20.72ZM36.92 12.84C36.92 15.4533 37.76 17.3867 39.44 18.64C40.48 15.6533 41 13.1867 41 11.24C41 10.12 40.8533 9.30667 40.56 8.8C40.2667 8.26666 39.8667 8 39.36 8C38.64 8 38.0533 8.42666 37.6 9.28C37.1467 10.1067 36.92 11.2933 36.92 12.84ZM66.9919 25.72C67.3385 25.72 67.6052 25.8933 67.7919 26.24C67.9785 26.5867 68.0719 27.0267 68.0719 27.56C68.0719 28.84 67.6852 29.6 66.9119 29.84C65.3119 30.4 63.5519 30.72 61.6319 30.8C61.1252 33.04 60.1252 34.84 58.6319 36.2C57.1385 37.5333 55.4452 38.2 53.5519 38.2C51.9519 38.2 50.5785 37.8133 49.4319 37.04C48.3119 36.2667 47.4585 35.24 46.8719 33.96C46.2852 32.68 45.9919 31.2933 45.9919 29.8C45.9919 27.7733 46.3785 25.9733 47.1519 24.4C47.9252 22.8 48.9919 21.56 50.3519 20.68C51.7119 19.7733 53.2185 19.32 54.8719 19.32C56.8985 19.32 58.5252 20.0267 59.7519 21.44C61.0052 22.8267 61.7385 24.5467 61.9519 26.6C63.2052 26.52 64.6985 26.2533 66.4319 25.8C66.6452 25.7467 66.8319 25.72 66.9919 25.72ZM53.8719 33.96C54.7252 33.96 55.4585 33.6133 56.0719 32.92C56.7119 32.2267 57.1385 31.2267 57.3519 29.92C56.5252 29.36 55.8852 28.6267 55.4319 27.72C55.0052 26.8133 54.7919 25.8533 54.7919 24.84C54.7919 24.4133 54.8319 23.9867 54.9119 23.56H54.7119C53.6452 23.56 52.7519 24.08 52.0319 25.12C51.3385 26.1333 50.9919 27.5733 50.9919 29.44C50.9919 30.9067 51.2719 32.0267 51.8319 32.8C52.4185 33.5733 53.0985 33.96 53.8719 33.96ZM67.4788 38.2C66.4654 38.2 65.7454 37.6667 65.3188 36.6C64.9188 35.5333 64.7188 33.8267 64.7188 31.48C64.7188 28.0133 65.2121 24.72 66.1988 21.6C66.4388 20.8267 66.8254 20.2667 67.3588 19.92C67.9188 19.5467 68.6921 19.36 69.6788 19.36C70.2121 19.36 70.5854 19.4267 70.7988 19.56C71.0121 19.6933 71.1188 19.9467 71.1188 20.32C71.1188 20.7467 70.9188 21.7067 70.5188 23.2C70.2521 24.2667 70.0388 25.2 69.8788 26C69.7188 26.8 69.5854 27.7867 69.4788 28.96C70.3588 26.6667 71.3454 24.8 72.4388 23.36C73.5321 21.92 74.5988 20.8933 75.6388 20.28C76.7054 19.6667 77.6788 19.36 78.5588 19.36C80.2921 19.36 81.1588 20.2267 81.1588 21.96C81.1588 23 80.8654 24.88 80.2788 27.6C79.7721 29.92 79.5188 31.4533 79.5188 32.2C79.5188 33.2667 79.9054 33.8 80.6788 33.8C81.2121 33.8 81.8388 33.48 82.5588 32.84C83.3054 32.1733 84.2921 31.1067 85.5188 29.64C85.8388 29.2667 86.1988 29.08 86.5988 29.08C86.9454 29.08 87.2121 29.24 87.3988 29.56C87.6121 29.88 87.7188 30.32 87.7188 30.88C87.7188 31.9467 87.4654 32.7733 86.9588 33.36C85.8121 34.7733 84.5721 35.9333 83.2388 36.84C81.9321 37.7467 80.4388 38.2 78.7588 38.2C77.3988 38.2 76.3721 37.8133 75.6788 37.04C74.9854 36.24 74.6388 35.0933 74.6388 33.6C74.6388 32.8533 74.8254 31.52 75.1988 29.6C75.5454 27.92 75.7188 26.76 75.7188 26.12C75.7188 25.6933 75.5721 25.48 75.2788 25.48C74.9321 25.48 74.4388 25.9333 73.7988 26.84C73.1854 27.72 72.5454 28.8933 71.8788 30.36C71.2388 31.8267 70.7188 33.3733 70.3188 35C70.0254 36.2533 69.6788 37.1067 69.2788 37.56C68.9054 37.9867 68.3054 38.2 67.4788 38.2ZM107.203 29.08C107.549 29.08 107.816 29.24 108.003 29.56C108.216 29.88 108.323 30.32 108.323 30.88C108.323 31.9467 108.069 32.7733 107.562 33.36C106.469 34.6933 105.269 35.84 103.963 36.8C102.656 37.7333 101.363 38.2 100.083 38.2C98.0558 38.2 96.5092 37.0133 95.4425 34.64C94.3225 36.0533 93.3358 37 92.4825 37.48C91.6558 37.96 90.6825 38.2 89.5625 38.2C87.9358 38.2 86.5892 37.6 85.5225 36.4C84.4825 35.1733 83.9625 33.5867 83.9625 31.64C83.9625 29.5067 84.4158 27.5333 85.3225 25.72C86.2292 23.88 87.4692 22.3867 89.0425 21.24C90.6425 20.0667 92.4292 19.3733 94.4025 19.16C94.9092 13.9867 95.8692 9.57333 97.2825 5.92C98.7225 2.24 100.603 0.399998 102.923 0.399998C104.069 0.399998 105.016 0.919998 105.763 1.96C106.536 3 106.923 4.57333 106.923 6.68C106.923 9.66667 106.189 13.16 104.723 17.16C103.256 21.16 101.296 25.2667 98.8425 29.48C98.9492 31.0267 99.1758 32.1333 99.5225 32.8C99.8958 33.4667 100.363 33.8 100.923 33.8C101.643 33.8 102.376 33.48 103.122 32.84C103.869 32.2 104.869 31.1333 106.123 29.64C106.443 29.2667 106.803 29.08 107.203 29.08ZM102.483 4.32C101.976 4.32 101.469 5.22666 100.963 7.04C100.456 8.82667 100.016 11.1733 99.6425 14.08C99.2958 16.9867 99.0425 20.0267 98.8825 23.2C101.869 16.6933 103.363 11.4667 103.363 7.52C103.363 6.50667 103.269 5.72 103.083 5.16C102.923 4.6 102.723 4.32 102.483 4.32ZM90.9625 34.16C91.4692 34.16 91.9758 33.96 92.4825 33.56C92.9892 33.1333 93.6292 32.36 94.4025 31.24C94.1358 29.8 94.0025 28.1867 94.0025 26.4C94.0025 25.76 94.0292 24.72 94.0825 23.28C92.6158 23.7333 91.3892 24.72 90.4025 26.24C89.4425 27.7333 88.9625 29.4 88.9625 31.24C88.9625 33.1867 89.6292 34.16 90.9625 34.16ZM125.468 25.72C125.815 25.72 126.082 25.8933 126.268 26.24C126.455 26.5867 126.548 27.0267 126.548 27.56C126.548 28.84 126.162 29.6 125.388 29.84C123.788 30.4 122.028 30.72 120.108 30.8C119.602 33.04 118.602 34.84 117.108 36.2C115.615 37.5333 113.922 38.2 112.028 38.2C110.428 38.2 109.055 37.8133 107.908 37.04C106.788 36.2667 105.935 35.24 105.348 33.96C104.762 32.68 104.468 31.2933 104.468 29.8C104.468 27.7733 104.855 25.9733 105.628 24.4C106.402 22.8 107.468 21.56 108.828 20.68C110.188 19.7733 111.695 19.32 113.348 19.32C115.375 19.32 117.002 20.0267 118.228 21.44C119.482 22.8267 120.215 24.5467 120.428 26.6C121.682 26.52 123.175 26.2533 124.908 25.8C125.122 25.7467 125.308 25.72 125.468 25.72ZM112.348 33.96C113.202 33.96 113.935 33.6133 114.548 32.92C115.188 32.2267 115.615 31.2267 115.828 29.92C115.002 29.36 114.362 28.6267 113.908 27.72C113.482 26.8133 113.268 25.8533 113.268 24.84C113.268 24.4133 113.308 23.9867 113.388 23.56H113.188C112.122 23.56 111.228 24.08 110.508 25.12C109.815 26.1333 109.468 27.5733 109.468 29.44C109.468 30.9067 109.748 32.0267 110.308 32.8C110.895 33.5733 111.575 33.96 112.348 33.96ZM139.275 24.84C139.862 24.84 140.355 25.0533 140.755 25.48C141.182 25.88 141.395 26.3867 141.395 27C141.395 27.3467 141.315 27.72 141.155 28.12C140.729 29.1067 140.129 29.9333 139.355 30.6C138.582 31.2667 137.729 31.6 136.795 31.6C136.049 31.6 135.409 31.3333 134.875 30.8C134.369 30.2667 134.115 29.5467 134.115 28.64C134.115 28.1333 134.142 27.5867 134.195 27C134.249 26.5733 134.275 26.28 134.275 26.12C134.275 25.9067 134.222 25.7467 134.115 25.64C134.035 25.5333 133.929 25.48 133.795 25.48C133.422 25.48 132.915 25.9333 132.275 26.84C131.635 27.72 130.995 28.8933 130.355 30.36C129.715 31.8267 129.195 33.3733 128.795 35C128.502 36.28 128.169 37.1333 127.795 37.56C127.422 37.9867 126.809 38.2 125.955 38.2C124.942 38.2 124.222 37.6667 123.795 36.6C123.395 35.5333 123.195 33.8267 123.195 31.48C123.195 28.0133 123.689 24.72 124.675 21.6C124.915 20.8267 125.302 20.2667 125.835 19.92C126.395 19.5467 127.169 19.36 128.155 19.36C128.689 19.36 129.062 19.4267 129.275 19.56C129.489 19.6933 129.595 19.9467 129.595 20.32C129.595 20.7467 129.395 21.7067 128.995 23.2C128.729 24.2667 128.515 25.2 128.355 26C128.195 26.8 128.062 27.7867 127.955 28.96C128.835 26.6667 129.822 24.8 130.915 23.36C132.009 21.92 133.075 20.8933 134.115 20.28C135.155 19.6667 136.102 19.36 136.955 19.36C137.729 19.36 138.315 19.5867 138.715 20.04C139.142 20.4667 139.355 21.1067 139.355 21.96C139.355 22.4667 139.209 23.4267 138.915 24.84H139.275Z" fill="white"/>
</svg>
